<?xml version="1.0" encoding="UTF-8" standalone="no"?>
<svg xmlns="http://www.w3.org/2000/svg" xmlns:xlink="http://www.w3.org/1999/xlink"  version="1.2" baseProfile="tiny" viewBox ="0 0 1000 500">
<title>pyqtgraph SVG export</title>
<desc>Generated with Qt and pyqtgraph</desc>
<style>
    image {
        image-rendering: crisp-edges;
        image-rendering: -moz-crisp-edges;
        image-rendering: pixelated;
    }
</style>
<rect width="100%" height="100%" fill="#ffffff" fill-opacity="1.0" />
<defs>
</defs>
<g id="GraphicsScene_1">
    <g fill="none" stroke="black" stroke-width="1" fill-rule="evenodd" stroke-linecap="square" stroke-linejoin="bevel" id="GraphicsLayout_1">
        <g fill="none" stroke="black" stroke-width="1" fill-rule="evenodd" stroke-linecap="square" stroke-linejoin="bevel" id="PlotItem_1">
            <g fill="none" stroke="black" stroke-width="1" fill-rule="evenodd" stroke-linecap="square" stroke-linejoin="bevel" id="ViewBox_1">
                <g fill="none" stroke="none" font-family="Sans Serif" font-size="12" font-weight="400" font-style="normal">
                    <path vector-effect="non-scaling-stroke" fill-rule="evenodd" d="M45.0,10.0 L630.5,10.0 L630.5,450.5 L45.0,450.5 L45.0,10.0 "/>
                </g>
                <clipPath id="ViewBox_1_clip">
                    <path vector-effect="none" fill-rule="evenodd" d="M45.0,10.0 L630.5,10.0 L630.5,450.5 L45.0,450.5 L45.0,10.0 " stroke-width="1.0"/>
                </clipPath>
                <g clip-path="url(#ViewBox_1_clip)">
                    <g fill="none" stroke="black" stroke-width="1" fill-rule="evenodd" stroke-linecap="square" stroke-linejoin="bevel" id="ChildGroup_1">
                        <g fill="none" stroke="black" stroke-width="1" fill-rule="evenodd" stroke-linecap="square" stroke-linejoin="bevel" id="FillBetweenItem_1">
                            <g fill="#1f77b4" fill-opacity="0.14902" stroke="none" font-family="Sans Serif" font-size="12" font-weight="400" font-style="normal">
                                <path vector-effect="non-scaling-stroke" fill-rule="evenodd" d="M67.3395,229.992 L70.05468326673,219.9028825742 L72.7698881463,209.839314286 L75.48505520340001,199.826542986 L78.2002222605,189.889896868 L80.9153893176,180.05448318199998 L83.6306104068,170.34520831999998 L86.34577746389999,160.78657695799998 L89.060944521,151.402491198 L91.7761115781,142.216853142 L94.4913326673,133.252962318 L97.2064997244,124.533314822 L99.9216667815,116.079804176 L102.63683383860001,107.913922186 L105.3520549278,100.05615636799999 L108.0672219849,92.52639166399999 L110.782389042,85.34391044199998 L113.4975560991,78.52638820599998 L116.21277718830001,72.09150045999999 L118.9279442454,66.05511498599998 L121.643381463,60.43269784999998 L124.35849448799999,55.238108254 L127.073607513,50.485004541999984 L129.788720538,46.185036478 L132.503833563,42.34905039399999 L135.218946588,38.98668747399998 L137.934059613,36.106785470000005 L140.649172638,33.716173553999994 L143.364825984,31.821279181999984 L146.079939009,30.42652122999999 L148.795052034,29.53571599999998 L151.510165059,29.151072929999998 L154.225278084,29.27319459399999 L156.94039110900002,29.90228184999998 L159.655504134,31.036526976000005 L162.370617159,32.673117959999985 L165.08627050500002,34.80763592599999 L167.80138353,37.435059424 L170.516496555,40.548760139999985 L173.23160958,44.14050289599999 L175.946722605,48.201650797999974 L178.66183562999998,52.721558372000004 L181.37694865499998,57.68917842799999 L184.09206168,63.091856912 L186.80771502599998,68.91573462199997 L189.52282805099998,75.14634978199999 L192.237941076,81.76783461 L194.95305410100002,88.76351789199998 L197.66816712600001,96.11592498199997 L200.383280151,103.806175228 L203.098393176,111.81498626199998 L205.813506201,120.12227228399999 L208.529159547,128.70694320399997 L211.244272572,137.547306358 L213.959385597,146.62086564999998 L216.674498622,155.905124984 L219.38961164699998,165.376383116 L222.10472467200003,175.010737944 L224.81983769699997,184.78388565 L227.53495072200002,194.671321558 L230.25060406800003,204.64773756 L232.96571709299997,214.6882071782 L235.68083011800002,224.76732187559998 L238.395943143,234.8596128578 L241.111056168,244.9396314162 L243.826169193,254.98194892799998 L246.541282218,264.961176942 L249.256395243,274.852027436 L251.972048589,284.629594018 L254.687161614,294.26937201199996 L257.402274639,303.746655884 L260.117387664,313.03794524799997 L262.832500689,322.11953886 L265.547613714,330.968538908 L268.262726739,339.562449296 L270.977839764,347.879979076 L273.69349311,355.899636442 L276.408606135,363.601536452 L279.12371916,370.96619588 L281.838832185,377.974934932 L284.55394521,384.609877246 L287.26905823500005,390.854552466 L289.98417126,396.693293668 L292.699284285,402.111036502 L295.41493763100004,407.09412262399997 L298.130050656,411.630299696 L300.845163681,415.707717096 L303.56027670599997,419.316331924 L306.275389731,422.446904712 L308.990502756,425.09180285599996 L311.705615781,427.243996326 L314.420728806,428.898061956 L317.136382152,430.050183444 L319.851495177,430.697147062 L322.566608202,430.837345946 L325.281721227,430.470579238 L327.996834252,429.59765037 L330.711947277,428.220567922 L333.427060302,426.343349054 L336.14217332699997,423.970211784 L338.857826673,421.10738271 L341.57293969799997,417.76209272 L344.288052723,413.94277784999997 L347.003165748,409.658878426 L349.718278773,404.921642496 L352.43339179799995,399.742518966 L355.148504823,394.13496532199997 L357.863617848,388.113041624 L360.57927119399994,381.691812222 L363.294384219,374.887747472 L366.009497244,367.717719446 L368.724610269,360.20000622199996 L371.439723294,352.35368931 L374.154836319,344.198251936 L376.869949344,335.754583332 L379.58506236899996,327.043974446 L382.300715715,318.088117942 L385.01582874,308.91011248999996 L387.73094176499995,299.53265504399997 L390.44605478999995,289.979848564 L393.161167815,280.27539429399997 L395.87628084,270.443997768 L398.591393865,260.51056537799997 L401.30650689,250.500204374 L404.022160236,240.4378412338 L406.737273261,230.34917975566 L409.452386286,220.259626468 L412.16749931100003,210.1946521738 L414.88261233599997,200.17965135 L417.59772536099996,190.23999236199998 L420.31283838599995,180.40056151599998 L423.027951411,170.686265204 L425.74360475699996,161.12180895999998 L428.458717782,151.731295744 L431.173830807,142.53842679999997 L433.888943832,133.56609994 L436.604056857,124.83741383399999 L439.319169882,116.37406114599999 L442.034282907,108.19773454 L444.74939593199997,100.32872067399998 L447.465049278,92.78710534799998 L450.180162303,85.59197007199998 L452.89527532799997,78.76139206599998 L455.61038835299996,72.31244425999998 L458.325501378,66.26179786799997 L461.040614403,60.62431638199999 L463.755727428,55.414662435999986 L466.470840453,50.64549008399999 L469.186493799,46.32925252199999 L471.901606824,42.476796081999964 L474.61671984899994,39.09756109 L477.331832874,36.200385297999986 L480.046945899,33.79249959399999 L482.762058924,31.87972885999997 L485.47717194899997,30.467295403999998 L488.192284974,29.558613811999976 L490.90793831999997,29.155893521999985 L493.62305134499996,29.260339681999994 L496.33816437,29.871349717999976 L499.053277395,30.98771848199999 L501.76839042,32.60663396199999 L504.483503445,34.72367728199998 L507.19861647000005,37.333826991999985 L509.91372949500004,40.430253919999984 L512.629382841,44.00532546199997 L515.3444958660001,48.050003008000004 L518.059608891,52.55404279999999 L520.774721916,57.50599593199999 L523.489834941,62.89340920799998 L526.204947966,68.702624284 L528.920060991,74.91897852599999 L531.635174016,81.527005868 L534.350827362,88.50983423799997 L537.065940387,95.84978813199999 L539.781053412,103.528589472 L542.496166437,111.52635331599998 L545.211279462,119.82339557999998 L547.926392487,128.39862617399996 L550.641505512,137.230352434 L553.356618537,146.296078264 L556.072271883,155.573307568 L558.787384908,165.038339102 L561.5024979330001,174.667270764 L564.217610958,184.43599959399998 L566.9327239830001,194.31961919999998 L569.647837008,204.293424048 L572.3629500330001,214.3320859442 L575.078063058,224.410256609 L577.7937164040001,234.5025275054 L580.5088294290001,244.5834097532 L583.223942454,254.627434558 L585.939055479,264.60927372599997 L588.654168504,274.503739664 L591.369281529,284.28592598 L594.084394554,293.930926282 L596.7995075790001,303.414436752 L599.515160925,312.712555288 L602.2302739500001,321.801982362 L604.945386975,330.659619304 L607.6605000000001,339.262970018 L607.6605000000001,229.992 L604.945386975,229.992 L602.2302739500001,229.992 L599.515160925,229.992 L596.7995075790001,229.992 L594.084394554,229.992 L591.369281529,229.992 L588.654168504,229.992 L585.939055479,229.992 L583.223942454,229.992 L580.5088294290001,229.992 L577.7937164040001,229.992 L575.078063058,229.992 L572.3629500330001,229.992 L569.647837008,229.992 L566.9327239830001,229.992 L564.217610958,229.992 L561.5024979330001,229.992 L558.787384908,229.992 L556.072271883,229.992 L553.356618537,229.992 L550.641505512,229.992 L547.926392487,229.992 L545.211279462,229.992 L542.496166437,229.992 L539.781053412,229.992 L537.065940387,229.992 L534.350827362,229.992 L531.635174016,229.992 L528.920060991,229.992 L526.204947966,229.992 L523.489834941,229.992 L520.774721916,229.992 L518.059608891,229.992 L515.3444958660001,229.992 L512.629382841,229.992 L509.91372949500004,229.992 L507.19861647000005,229.992 L504.483503445,229.992 L501.76839042,229.992 L499.053277395,229.992 L496.33816437,229.992 L493.62305134499996,229.992 L490.90793831999997,229.992 L488.192284974,229.992 L485.47717194899997,229.992 L482.762058924,229.992 L480.046945899,229.992 L477.331832874,229.992 L474.61671984899994,229.992 L471.901606824,229.992 L469.186493799,229.992 L466.470840453,229.992 L463.755727428,229.992 L461.040614403,229.992 L458.325501378,229.992 L455.61038835299996,229.992 L452.89527532799997,229.992 L450.180162303,229.992 L447.465049278,229.992 L444.74939593199997,229.992 L442.034282907,229.992 L439.319169882,229.992 L436.604056857,229.992 L433.888943832,229.992 L431.173830807,229.992 L428.458717782,229.992 L425.74360475699996,229.992 L423.027951411,229.992 L420.31283838599995,229.992 L417.59772536099996,229.992 L414.88261233599997,229.992 L412.16749931100003,229.992 L409.452386286,229.992 L406.737273261,229.992 L404.022160236,229.992 L401.30650689,229.992 L398.591393865,229.992 L395.87628084,229.992 L393.161167815,229.992 L390.44605478999995,229.992 L387.73094176499995,229.992 L385.01582874,229.992 L382.300715715,229.992 L379.58506236899996,229.992 L376.869949344,229.992 L374.154836319,229.992 L371.439723294,229.992 L368.724610269,229.992 L366.009497244,229.992 L363.294384219,229.992 L360.57927119399994,229.992 L357.863617848,229.992 L355.148504823,229.992 L352.43339179799995,229.992 L349.718278773,229.992 L347.003165748,229.992 L344.288052723,229.992 L341.57293969799997,229.992 L338.857826673,229.992 L336.14217332699997,229.992 L333.427060302,229.992 L330.711947277,229.992 L327.996834252,229.992 L325.281721227,229.992 L322.566608202,229.992 L319.851495177,229.992 L317.136382152,229.992 L314.420728806,229.992 L311.705615781,229.992 L308.990502756,229.992 L306.275389731,229.992 L303.56027670599997,229.992 L300.845163681,229.992 L298.130050656,229.992 L295.41493763100004,229.992 L292.699284285,229.992 L289.98417126,229.992 L287.26905823500005,229.992 L284.55394521,229.992 L281.838832185,229.992 L279.12371916,229.992 L276.408606135,229.992 L273.69349311,229.992 L270.977839764,229.992 L268.262726739,229.992 L265.547613714,229.992 L262.832500689,229.992 L260.117387664,229.992 L257.402274639,229.992 L254.687161614,229.992 L251.972048589,229.992 L249.256395243,229.992 L246.541282218,229.992 L243.826169193,229.992 L241.111056168,229.992 L238.395943143,229.992 L235.68083011800002,229.992 L232.96571709299997,229.992 L230.25060406800003,229.992 L227.53495072200002,229.992 L224.81983769699997,229.992 L222.10472467200003,229.992 L219.38961164699998,229.992 L216.674498622,229.992 L213.959385597,229.992 L211.244272572,229.992 L208.529159547,229.992 L205.813506201,229.992 L203.098393176,229.992 L200.383280151,229.992 L197.66816712600001,229.992 L194.95305410100002,229.992 L192.237941076,229.992 L189.52282805099998,229.992 L186.80771502599998,229.992 L184.09206168,229.992 L181.37694865499998,229.992 L178.66183562999998,229.992 L175.946722605,229.992 L173.23160958,229.992 L170.516496555,229.992 L167.80138353,229.992 L165.08627050500002,229.992 L162.370617159,229.992 L159.655504134,229.992 L156.94039110900002,229.992 L154.225278084,229.992 L151.510165059,229.992 L148.795052034,229.992 L146.079939009,229.992 L143.364825984,229.992 L140.649172638,229.992 L137.934059613,229.992 L135.218946588,229.992 L132.503833563,229.992 L129.788720538,229.992 L127.073607513,229.992 L124.35849448799999,229.992 L121.643381463,229.992 L118.9279442454,229.992 L116.21277718830001,229.992 L113.4975560991,229.992 L110.782389042,229.992 L108.0672219849,229.992 L105.3520549278,229.992 L102.63683383860001,229.992 L99.9216667815,229.992 L97.2064997244,229.992 L94.4913326673,229.992 L91.7761115781,229.992 L89.060944521,229.992 L86.34577746389999,229.992 L83.6306104068,229.992 L80.9153893176,229.992 L78.2002222605,229.992 L75.48505520340001,229.992 L72.7698881463,229.992 L70.05468326673,229.992 L67.3395,229.992 "/>
                            </g>
                        </g>
                        <g fill="none" stroke="black" stroke-width="1" fill-rule="evenodd" stroke-linecap="square" stroke-linejoin="bevel" id="FillBetweenItem_2">
                            <g fill="#1f77b4" fill-opacity="0.329412" stroke="none" font-family="Sans Serif" font-size="12" font-weight="400" font-style="normal">
                                <path vector-effect="non-scaling-stroke" fill-rule="evenodd" d="M67.3395,133.695452492 L70.05468326673,124.963150942 L72.7698881463,116.49578109399998 L75.48505520340001,108.31503561199997 L78.2002222605,100.441402012 L80.9153893176,92.89496609399998 L83.6306104068,85.694407652 L86.34577746389999,78.85840647999999 L89.060944521,72.40383465 L91.7761115781,66.34716251799998 L94.4913326673,60.70365529200001 L97.2064997244,55.48757388999999 L99.9216667815,50.71197408199998 L102.63683383860001,46.389108205999975 L105.3520549278,42.52962173599997 L108.0672219849,39.14355757199999 L110.782389042,36.239150892 L113.4975560991,33.824034299999994 L116.21277718830001,31.904233535999992 L118.9279442454,30.48436833399998 L121.643381463,29.56825499599998 L124.35849448799999,29.15810295999998 L127.073607513,29.25511737399998 L129.788720538,29.85889652199998 L132.503833563,30.967833539999987 L135.218946588,32.579317273999976 L137.934059613,34.68912970599999 L140.649172638,37.29204852799998 L143.364825984,40.381646284 L146.079939009,43.94968779599998 L148.795052034,47.98753616999997 L151.510165059,52.484947648 L154.225278084,57.43047332399996 L156.94039110900002,62.811459144 L159.655504134,68.61464847999997 L162.370617159,74.82537869800001 L165.08627050500002,81.42778201599998 L167.80138353,88.40518721999999 L170.516496555,95.74011966399999 L173.23160958,103.41389955399998 L175.946722605,111.40744538 L178.66183562999998,119.70026962599998 L181.37694865499998,128.27148305999998 L184.09206168,137.099393018 L186.80771502599998,146.162105978 L189.52282805099998,155.43632241199998 L192.237941076,164.898742792 L194.95305410100002,174.525465016 L197.66816712600001,184.292386124 L200.383280151,194.174599724 L203.098393176,204.14719942399998 L205.813506201,214.1850578882 L208.529159547,224.26282683699998 L211.244272572,234.35507764759998 L213.959385597,244.4363214398 L216.674498622,254.481009076 L219.38961164699998,264.464053392 L222.10472467200003,274.359925336 L224.81983769699997,284.143718516 L227.53495072200002,293.790928256 L230.25060406800003,303.27704988 L232.96571709299997,312.578181286 L235.68083011800002,321.670822088 L238.395943143,330.531873616 L241.111056168,339.13924149 L243.826169193,347.471032188 L246.541282218,355.50615561999996 L249.256395243,363.22432512800003 L251.972048589,370.606258344 L254.687161614,377.633074616 L257.402274639,384.287299298 L260.117387664,390.55185946 L262.832500689,396.411088178 L265.547613714,401.850322818 L268.262726739,406.85550332 L270.977839764,411.414176488 L273.69349311,415.514893416 L276.408606135,419.147209488 L279.12371916,422.301885236 L281.838832185,424.97108719799996 L284.55394521,427.14798620199997 L287.26905823500005,428.82735993999995 L289.98417126,430.004588678 L292.699284285,430.67686040399997 L295.41493763100004,430.842367396 L298.130050656,430.500908796 L300.845163681,429.653288036 L303.56027670599997,428.30151369600003 L306.275389731,426.449000362 L308.990502756,424.100568626 L311.705615781,421.26204337 L314.420728806,417.940655482 L317.136382152,414.14484099799995 L319.851495177,409.884040244 L322.566608202,405.16909955200003 L325.281721227,400.011869544 L327.996834252,394.42540599 L330.711947277,388.42376894999995 L333.427060302,382.02222363199996 L336.14217332699997,375.236838676 L338.857826673,368.084687012 L341.57293969799997,360.58384586 L344.288052723,352.75339672999996 L347.003165748,344.613023706 L349.718278773,336.183214304 L352.43339179799995,327.48546033 L355.148504823,318.54145444799997 L357.863617848,309.37389361199996 L360.57927119399994,300.00587649199997 L363.294384219,290.46130519 L366.009497244,280.76388095 L368.724610269,270.938309306 L371.439723294,261.009295792 L374.154836319,251.00214851599998 L376.869949344,240.9417939558 L379.58506236899996,230.85384552355998 L382.300715715,220.7637398764 L385.01582874,210.6969176886 L387.73094176499995,200.67878348 L390.44605478999995,190.73470561599999 L393.161167815,180.88965074599997 L395.87628084,171.16872611999997 L398.591393865,161.596235556 L401.30650689,152.196282014 L404.022160236,142.992968454 L406.737273261,134.00919268799998 L409.452386286,125.26765166999999 L412.16749931100003,116.79064063799999 L414.88261233599997,108.59945053999999 L417.59772536099996,100.71456889199999 L420.31283838599995,93.15608149399998 L423.027951411,85.943270714 L425.74360475699996,79.09381205599999 L428.458717782,72.62558188199998 L431.173830807,66.554648832 L433.888943832,60.89627811399998 L436.604056857,55.66473064599998 L439.319169882,50.873263055999985 L442.034282907,46.53412768199999 L444.74939593199997,42.65817085599997 L447.465049278,39.25523461999998 L450.180162303,36.333755009999976 L452.89527532799997,33.90116377199999 L455.61038835299996,31.963687503999978 L458.325501378,30.525945939999986 L461.040614403,29.592157097999973 L463.755727428,29.164128699999992 L466.470840453,29.243065893999983 L469.186493799,29.828767821999975 L471.901606824,30.920029336 L474.61671984899994,32.51383756600001 L477.331832874,34.60617535200001 L480.046945899,37.19161952799999 L482.762058924,40.263943495999996 L485.47717194899997,43.81531379399999 L488.192284974,47.836691812 L490.90793831999997,52.31803464999999 L493.62305134499996,57.24789340199999 L496.33816437,62.613814872000006 L499.053277395,68.40234157399999 L501.76839042,74.59881087399998 L504.483503445,81.18755584799999 L507.19861647000005,88.15210614 L509.91372949500004,95.47458538799998 L512.629382841,103.136916372 L515.3444958660001,111.11921414999998 L518.059608891,119.40179463799998 L520.774721916,127.96356774599998 L523.489834941,136.78304166799998 L526.204947966,145.83751945 L528.920060991,155.10470585399997 L531.635174016,164.560899636 L534.350827362,174.182399552 L537.065940387,183.944700926 L539.781053412,193.82309822399998 L542.496166437,203.79308677 L545.211279462,213.8289969116 L547.926392487,223.905801742 L550.641505512,233.9979722094 L553.356618537,244.0800395194 L556.072271883,254.126494706 L558.787384908,264.112150176 L561.5024979330001,274.011436706 L564.217610958,283.79984962 L566.9327239830001,293.452281668 L569.647837008,302.944429032 L572.3629500330001,312.25238961 L575.078063058,321.352863874 L577.7937164040001,330.222552296 L580.5088294290001,338.839159638 L583.223942454,347.180993236 L585.939055479,355.226963 L588.654168504,362.956782272 L591.369281529,370.350967826 L594.084394554,377.390839868 L596.7995075790001,384.058321178 L599.515160925,390.337142258 L602.2302739500001,396.210832752 L604.945386975,401.66513174199997 L607.6605000000001,406.685979168 L607.6605000000001,229.992 L604.945386975,229.992 L602.2302739500001,229.992 L599.515160925,229.992 L596.7995075790001,229.992 L594.084394554,229.992 L591.369281529,229.992 L588.654168504,229.992 L585.939055479,229.992 L583.223942454,229.992 L580.5088294290001,229.992 L577.7937164040001,229.992 L575.078063058,229.992 L572.3629500330001,229.992 L569.647837008,229.992 L566.9327239830001,229.992 L564.217610958,229.992 L561.5024979330001,229.992 L558.787384908,229.992 L556.072271883,229.992 L553.356618537,229.992 L550.641505512,229.992 L547.926392487,229.992 L545.211279462,229.992 L542.496166437,229.992 L539.781053412,229.992 L537.065940387,229.992 L534.350827362,229.992 L531.635174016,229.992 L528.920060991,229.992 L526.204947966,229.992 L523.489834941,229.992 L520.774721916,229.992 L518.059608891,229.992 L515.3444958660001,229.992 L512.629382841,229.992 L509.91372949500004,229.992 L507.19861647000005,229.992 L504.483503445,229.992 L501.76839042,229.992 L499.053277395,229.992 L496.33816437,229.992 L493.62305134499996,229.992 L490.90793831999997,229.992 L488.192284974,229.992 L485.47717194899997,229.992 L482.762058924,229.992 L480.046945899,229.992 L477.331832874,229.992 L474.61671984899994,229.992 L471.901606824,229.992 L469.186493799,229.992 L466.470840453,229.992 L463.755727428,229.992 L461.040614403,229.992 L458.325501378,229.992 L455.61038835299996,229.992 L452.89527532799997,229.992 L450.180162303,229.992 L447.465049278,229.992 L444.74939593199997,229.992 L442.034282907,229.992 L439.319169882,229.992 L436.604056857,229.992 L433.888943832,229.992 L431.173830807,229.992 L428.458717782,229.992 L425.74360475699996,229.992 L423.027951411,229.992 L420.31283838599995,229.992 L417.59772536099996,229.992 L414.88261233599997,229.992 L412.16749931100003,229.992 L409.452386286,229.992 L406.737273261,229.992 L404.022160236,229.992 L401.30650689,229.992 L398.591393865,229.992 L395.87628084,229.992 L393.161167815,229.992 L390.44605478999995,229.992 L387.73094176499995,229.992 L385.01582874,229.992 L382.300715715,229.992 L379.58506236899996,229.992 L376.869949344,229.992 L374.154836319,229.992 L371.439723294,229.992 L368.724610269,229.992 L366.009497244,229.992 L363.294384219,229.992 L360.57927119399994,229.992 L357.863617848,229.992 L355.148504823,229.992 L352.43339179799995,229.992 L349.718278773,229.992 L347.003165748,229.992 L344.288052723,229.992 L341.57293969799997,229.992 L338.857826673,229.992 L336.14217332699997,229.992 L333.427060302,229.992 L330.711947277,229.992 L327.996834252,229.992 L325.281721227,229.992 L322.566608202,229.992 L319.851495177,229.992 L317.136382152,229.992 L314.420728806,229.992 L311.705615781,229.992 L308.990502756,229.992 L306.275389731,229.992 L303.56027670599997,229.992 L300.845163681,229.992 L298.130050656,229.992 L295.41493763100004,229.992 L292.699284285,229.992 L289.98417126,229.992 L287.26905823500005,229.992 L284.55394521,229.992 L281.838832185,229.992 L279.12371916,229.992 L276.408606135,229.992 L273.69349311,229.992 L270.977839764,229.992 L268.262726739,229.992 L265.547613714,229.992 L262.832500689,229.992 L260.117387664,229.992 L257.402274639,229.992 L254.687161614,229.992 L251.972048589,229.992 L249.256395243,229.992 L246.541282218,229.992 L243.826169193,229.992 L241.111056168,229.992 L238.395943143,229.992 L235.68083011800002,229.992 L232.96571709299997,229.992 L230.25060406800003,229.992 L227.53495072200002,229.992 L224.81983769699997,229.992 L222.10472467200003,229.992 L219.38961164699998,229.992 L216.674498622,229.992 L213.959385597,229.992 L211.244272572,229.992 L208.529159547,229.992 L205.813506201,229.992 L203.098393176,229.992 L200.383280151,229.992 L197.66816712600001,229.992 L194.95305410100002,229.992 L192.237941076,229.992 L189.52282805099998,229.992 L186.80771502599998,229.992 L184.09206168,229.992 L181.37694865499998,229.992 L178.66183562999998,229.992 L175.946722605,229.992 L173.23160958,229.992 L170.516496555,229.992 L167.80138353,229.992 L165.08627050500002,229.992 L162.370617159,229.992 L159.655504134,229.992 L156.94039110900002,229.992 L154.225278084,229.992 L151.510165059,229.992 L148.795052034,229.992 L146.079939009,229.992 L143.364825984,229.992 L140.649172638,229.992 L137.934059613,229.992 L135.218946588,229.992 L132.503833563,229.992 L129.788720538,229.992 L127.073607513,229.992 L124.35849448799999,229.992 L121.643381463,229.992 L118.9279442454,229.992 L116.21277718830001,229.992 L113.4975560991,229.992 L110.782389042,229.992 L108.0672219849,229.992 L105.3520549278,229.992 L102.63683383860001,229.992 L99.9216667815,229.992 L97.2064997244,229.992 L94.4913326673,229.992 L91.7761115781,229.992 L89.060944521,229.992 L86.34577746389999,229.992 L83.6306104068,229.992 L80.9153893176,229.992 L78.2002222605,229.992 L75.48505520340001,229.992 L72.7698881463,229.992 L70.05468326673,229.992 L67.3395,229.992 "/>
                            </g>
                        </g>
                        <g fill="none" stroke="black" stroke-width="1" fill-rule="evenodd" stroke-linecap="square" stroke-linejoin="bevel" id="FillBetweenItem_3">
                            <g fill="#1f77b4" fill-opacity="0.509804" stroke="none" font-family="Sans Serif" font-size="12" font-weight="400" font-style="normal">
                                <path vector-effect="non-scaling-stroke" fill-rule="evenodd" d="M67.3395,60.975817882 L70.05468326673,55.73804381599999 L72.7698881463,50.94014876999998 L75.48505520340001,46.594184223999974 L78.2002222605,42.711398226 L80.9153893176,39.301431959999974 L83.6306104068,36.37292231999999 L86.34577746389999,33.93310019399999 L89.060944521,31.98839303799997 L91.7761115781,30.543420585999996 L94.4913326673,29.601999140000004 L97.2064997244,29.166739853999985 L99.9216667815,29.238245301999996 L102.63683383860001,29.816716342000007 L105.3520549278,30.900546109999993 L108.0672219849,32.486922593999964 L110.782389042,34.572029491999984 L113.4975560991,37.150443637999985 L116.21277718830001,40.21573757599998 L118.9279442454,43.760077843999994 L121.643381463,47.77462668999999 L124.35849448799999,52.249341214 L127.073607513,57.17257165199999 L129.788720538,62.53226652399999 L132.503833563,68.314767486 L135.218946588,74.50541190399997 L137.934059613,81.088532854 L140.649172638,88.04765997999999 L143.364825984,95.36511777799998 L146.079939009,103.02242731199998 L148.795052034,111.00050707199998 L151.510165059,119.278668684 L154.225278084,127.83662548999999 L156.94039110900002,136.65228310999998 L159.655504134,145.70374802199998 L162.370617159,154.96792155599996 L165.08627050500002,164.42150418399999 L167.80138353,174.040593804 L170.516496555,183.801087456 L173.23160958,193.678078748 L175.946722605,203.646862146 L178.66183562999998,213.6820090272 L181.37694865499998,223.7583920558 L184.09206168,233.85052235159998 L186.80771502599998,243.93291103439998 L189.52282805099998,253.98006922399998 L192.237941076,263.966728984 L194.95305410100002,273.86762237799996 L197.66816712600001,283.657642156 L200.383280151,293.312283642 L203.098393176,302.80704216 L205.813506201,312.11781475 L208.529159547,321.221502742 L211.244272572,330.09460575 L213.959385597,338.71523025199997 L216.674498622,347.061281868 L219.38961164699998,355.111670508 L222.10472467200003,362.84631037199995 L224.81983769699997,370.24551737599995 L227.53495072200002,377.29061172599995 L230.25060406800003,383.96371706 L232.96571709299997,390.24816216399995 L235.68083011800002,396.128079256 L238.395943143,401.588604844 L241.111056168,406.615678868 L243.826169193,411.19704899 L246.541282218,415.320864588 L249.256395243,418.976881904 L251.972048589,422.155660612 L254.687161614,424.84936725 L257.402274639,427.05097178799997 L260.117387664,428.755251918 L262.832500689,429.95758790599996 L265.547613714,430.65516774 L268.262726739,430.846183698 L270.977839764,430.530033206 L273.69349311,429.70751969599996 L276.408606135,428.38085260599996 L279.12371916,426.55344652199994 L281.838832185,424.22972031999996 L284.55394521,421.415498882 L287.26905823500005,418.118213954 L289.98417126,414.345698998 L292.699284285,410.10799691399995 L295.41493763100004,405.41535146 L298.130050656,400.280014974 L300.845163681,394.71464151 L303.56027670599997,388.733491986 L306.275389731,382.351429894 L308.990502756,375.58492559 L311.705615781,368.450650288 L314.420728806,360.966882066 L317.136382152,353.152501576 L319.851495177,345.02719290199997 L322.566608202,336.611242702 L325.281721227,327.92634364 L327.996834252,318.99418837999997 L330.711947277,309.837273018 L333.427060302,300.478696224 L336.14217332699997,290.9423601 L338.857826673,281.25196589 L341.57293969799997,271.432219128 L344.288052723,261.507825348 L347.003165748,251.5038918 L349.718278773,241.4456663346 L352.43339179799995,231.3585072743 L355.148504823,221.2678934564 L357.863617848,211.19930371819999 L360.57927119399994,201.17811646799998 L363.294384219,191.229820586 L366.009497244,181.379141692 L368.724610269,171.65138789399998 L371.439723294,162.07086300999998 L374.154836319,152.661870858 L376.869949344,143.448112682 L379.58506236899996,134.45268715199998 L382.300715715,125.698692938 L385.01582874,117.20782270399998 L387.73094176499995,109.00176911399998 L390.44605478999995,101.101220542 L393.161167815,93.52606193 L395.87628084,86.29537478799998 L398.591393865,79.42743719399999 L401.30650689,72.93972379399997 L404.022160236,66.84850408599999 L406.737273261,61.169043278000004 L409.452386286,55.91600400399997 L412.16749931100003,51.10224117599998 L414.88261233599997,46.74020798999999 L417.59772536099996,42.84075077799997 L420.31283838599995,39.41391243999999 L423.027951411,36.46812901199999 L425.74360475699996,34.011033097999984 L428.458717782,32.04865043800001 L431.173830807,30.586002481999998 L433.888943832,29.626704673999996 L436.604056857,29.173368167999968 L439.319169882,29.226997253999997 L442.034282907,29.78759193199997 L444.74939593199997,30.853545338000004 L447.465049278,32.42224631799999 L450.180162303,34.489677712 L452.89527532799997,37.05081806999999 L455.61038835299996,40.099039077999976 L458.325501378,43.626507274000005 L461.040614403,47.62478662199999 L463.755727428,52.08323164799998 L466.470840453,56.99099601999998 L469.186493799,62.33542568399997 L471.901606824,68.10306315399998 L474.61671984899994,74.279446654 L477.331832874,80.849110118 L480.046945899,87.79518147399997 L482.762058924,95.100386934 L485.47717194899997,102.746046704 L488.192284974,110.71287841599998 L490.90793831999997,118.980997128 L493.62305134499996,127.52911189199999 L496.33816437,136.336132618 L499.053277395,145.37956321 L501.76839042,154.636706714 L504.483503445,164.084062744 L507.19861647000005,173.697729198 L509.91372949500004,183.45360311599998 L512.629382841,193.32677810599998 L515.3444958660001,203.29274949199998 L518.059608891,213.3260283938 L520.774721916,223.40138704659998 L523.489834941,233.49339682759998 L526.204947966,243.57656885659998 L528.920060991,253.625353996 L531.635174016,263.61462491 L534.350827362,273.51893289 L537.065940387,283.313371544 L539.781053412,292.973235338 L542.496166437,302.474019596 L545.211279462,311.791822216 L547.926392487,320.903142812 L550.641505512,329.784882714 L553.356618537,338.41474668399997 L556.072271883,346.7708412 L558.787384908,354.83207617200003 L561.5024979330001,362.578164942 L564.217610958,369.989624284 L566.9327239830001,377.047372688 L569.647837008,383.734136366 L572.3629500330001,390.03264153 L575.078063058,395.92702039799997 L577.7937164040001,401.402610336 L580.5088294290001,406.445351284 L583.223942454,411.04258918799997 L585.939055479,415.182875142 L588.654168504,418.855563672 L591.369281529,422.05141531000004 L594.084394554,424.76239573600003 L596.7995075790001,426.98147492 L599.515160925,428.70343055399997 L602.2302739500001,429.92364290399996 L604.945386975,430.63909909999995 L607.6605000000001,430.84799141999997 L607.6605000000001,229.992 L604.945386975,229.992 L602.2302739500001,229.992 L599.515160925,229.992 L596.7995075790001,229.992 L594.084394554,229.992 L591.369281529,229.992 L588.654168504,229.992 L585.939055479,229.992 L583.223942454,229.992 L580.5088294290001,229.992 L577.7937164040001,229.992 L575.078063058,229.992 L572.3629500330001,229.992 L569.647837008,229.992 L566.9327239830001,229.992 L564.217610958,229.992 L561.5024979330001,229.992 L558.787384908,229.992 L556.072271883,229.992 L553.356618537,229.992 L550.641505512,229.992 L547.926392487,229.992 L545.211279462,229.992 L542.496166437,229.992 L539.781053412,229.992 L537.065940387,229.992 L534.350827362,229.992 L531.635174016,229.992 L528.920060991,229.992 L526.204947966,229.992 L523.489834941,229.992 L520.774721916,229.992 L518.059608891,229.992 L515.3444958660001,229.992 L512.629382841,229.992 L509.91372949500004,229.992 L507.19861647000005,229.992 L504.483503445,229.992 L501.76839042,229.992 L499.053277395,229.992 L496.33816437,229.992 L493.62305134499996,229.992 L490.90793831999997,229.992 L488.192284974,229.992 L485.47717194899997,229.992 L482.762058924,229.992 L480.046945899,229.992 L477.331832874,229.992 L474.61671984899994,229.992 L471.901606824,229.992 L469.186493799,229.992 L466.470840453,229.992 L463.755727428,229.992 L461.040614403,229.992 L458.325501378,229.992 L455.61038835299996,229.992 L452.89527532799997,229.992 L450.180162303,229.992 L447.465049278,229.992 L444.74939593199997,229.992 L442.034282907,229.992 L439.319169882,229.992 L436.604056857,229.992 L433.888943832,229.992 L431.173830807,229.992 L428.458717782,229.992 L425.74360475699996,229.992 L423.027951411,229.992 L420.31283838599995,229.992 L417.59772536099996,229.992 L414.88261233599997,229.992 L412.16749931100003,229.992 L409.452386286,229.992 L406.737273261,229.992 L404.022160236,229.992 L401.30650689,229.992 L398.591393865,229.992 L395.87628084,229.992 L393.161167815,229.992 L390.44605478999995,229.992 L387.73094176499995,229.992 L385.01582874,229.992 L382.300715715,229.992 L379.58506236899996,229.992 L376.869949344,229.992 L374.154836319,229.992 L371.439723294,229.992 L368.724610269,229.992 L366.009497244,229.992 L363.294384219,229.992 L360.57927119399994,229.992 L357.863617848,229.992 L355.148504823,229.992 L352.43339179799995,229.992 L349.718278773,229.992 L347.003165748,229.992 L344.288052723,229.992 L341.57293969799997,229.992 L338.857826673,229.992 L336.14217332699997,229.992 L333.427060302,229.992 L330.711947277,229.992 L327.996834252,229.992 L325.281721227,229.992 L322.566608202,229.992 L319.851495177,229.992 L317.136382152,229.992 L314.420728806,229.992 L311.705615781,229.992 L308.990502756,229.992 L306.275389731,229.992 L303.56027670599997,229.992 L300.845163681,229.992 L298.130050656,229.992 L295.41493763100004,229.992 L292.699284285,229.992 L289.98417126,229.992 L287.26905823500005,229.992 L284.55394521,229.992 L281.838832185,229.992 L279.12371916,229.992 L276.408606135,229.992 L273.69349311,229.992 L270.977839764,229.992 L268.262726739,229.992 L265.547613714,229.992 L262.832500689,229.992 L260.117387664,229.992 L257.402274639,229.992 L254.687161614,229.992 L251.972048589,229.992 L249.256395243,229.992 L246.541282218,229.992 L243.826169193,229.992 L241.111056168,229.992 L238.395943143,229.992 L235.68083011800002,229.992 L232.96571709299997,229.992 L230.25060406800003,229.992 L227.53495072200002,229.992 L224.81983769699997,229.992 L222.10472467200003,229.992 L219.38961164699998,229.992 L216.674498622,229.992 L213.959385597,229.992 L211.244272572,229.992 L208.529159547,229.992 L205.813506201,229.992 L203.098393176,229.992 L200.383280151,229.992 L197.66816712600001,229.992 L194.95305410100002,229.992 L192.237941076,229.992 L189.52282805099998,229.992 L186.80771502599998,229.992 L184.09206168,229.992 L181.37694865499998,229.992 L178.66183562999998,229.992 L175.946722605,229.992 L173.23160958,229.992 L170.516496555,229.992 L167.80138353,229.992 L165.08627050500002,229.992 L162.370617159,229.992 L159.655504134,229.992 L156.94039110900002,229.992 L154.225278084,229.992 L151.510165059,229.992 L148.795052034,229.992 L146.079939009,229.992 L143.364825984,229.992 L140.649172638,229.992 L137.934059613,229.992 L135.218946588,229.992 L132.503833563,229.992 L129.788720538,229.992 L127.073607513,229.992 L124.35849448799999,229.992 L121.643381463,229.992 L118.9279442454,229.992 L116.21277718830001,229.992 L113.4975560991,229.992 L110.782389042,229.992 L108.0672219849,229.992 L105.3520549278,229.992 L102.63683383860001,229.992 L99.9216667815,229.992 L97.2064997244,229.992 L94.4913326673,229.992 L91.7761115781,229.992 L89.060944521,229.992 L86.34577746389999,229.992 L83.6306104068,229.992 L80.9153893176,229.992 L78.2002222605,229.992 L75.48505520340001,229.992 L72.7698881463,229.992 L70.05468326673,229.992 L67.3395,229.992 "/>
                            </g>
                        </g>
                        <g fill="none" stroke="black" stroke-width="1" fill-rule="evenodd" stroke-linecap="square" stroke-linejoin="bevel" id="FillBetweenItem_4">
                            <g fill="#1f77b4" fill-opacity="0.686275" stroke="none" font-family="Sans Serif" font-size="12" font-weight="400" font-style="normal">
                                <path vector-effect="non-scaling-stroke" fill-rule="evenodd" d="M67.3395,29.637149289999968 L70.05468326673,29.176381037999988 L72.7698881463,29.22257837799998 L75.48505520340001,29.775741309999972 L78.2002222605,30.83426296999997 L80.9153893176,32.39573306199998 L83.6306104068,34.45593356799998 L86.34577746389999,37.009843037999985 L89.060944521,40.05103401599999 L91.7761115781,43.57167304000001 L94.4913326673,47.56292235799998 L97.2064997244,52.01473906999999 L99.9216667815,56.91607598599998 L102.63683383860001,62.25427905199999 L105.3520549278,68.01589078199999 L108.0672219849,74.18644939999999 L110.782389042,80.75028798199997 L113.4975560991,87.69113703 L116.21277718830001,94.991120182 L118.9279442454,102.63195936 L121.643381463,110.59417133799998 L124.35849448799999,118.85807203199998 L127.073607513,127.40237049399998 L129.788720538,136.205775776 L132.503833563,145.24599264 L135.218946588,154.499922416 L137.934059613,163.944667292 L140.649172638,173.556124308 L143.364825984,183.309989646 L146.079939009,193.18175863 L148.795052034,203.146524868 L151.510165059,213.17904050939998 L154.225278084,223.2539773604 L156.94039110900002,233.345926884 L159.655504134,243.4294202858 L162.370617159,253.478928514 L165.08627050500002,263.469203718 L167.80138353,273.374917704 L170.516496555,283.17116408 L173.23160958,292.83303645399997 L175.946722605,302.336431866 L178.66183562999998,311.657046498 L181.37694865499998,320.771580822 L184.09206168,329.656936168 L186.80771502599998,338.29061644 L189.52282805099998,346.650728116 L192.237941076,354.716582822 L194.95305410100002,362.467291326 L197.66816712600001,369.883772118 L200.383280151,376.946943688 L203.098393176,383.63913053199997 L205.813506201,389.943460578 L208.529159547,395.843865186 L211.244272572,401.325681722 L213.959385597,406.37485012599996 L216.674498622,410.97871634399996 L219.38961164699998,415.125630612 L222.10472467200003,418.805349172 L224.81983769699997,422.00823084 L227.53495072200002,424.726241296 L230.25060406800003,426.95275222600003 L232.96571709299997,428.681938748 L235.68083011800002,429.90938198599997 L238.395943143,430.632269928 L241.111056168,430.848593994 L243.826169193,430.55775160999997 L246.541282218,429.760747066 L249.256395243,428.459187226 L251.972048589,426.65668753399996 L254.687161614,424.35746600799996 L257.402274639,421.567749246 L260.117387664,418.29436642 L262.832500689,414.545552708 L265.547613714,410.330748436 L268.262726739,405.660599078 L270.977839764,400.547156114 L273.69349311,395.00287274 L276.408606135,389.04221073199994 L279.12371916,382.679832724 L281.838832185,375.932008214 L284.55394521,368.815810132 L287.26905823500005,361.34911483999997 L289.98417126,353.55080298999997 L292.699284285,345.440558666 L295.41493763100004,337.038668526 L298.130050656,328.366624376 L300.845163681,319.446319738 L303.56027670599997,310.30004985 L306.275389731,300.95111424 L308.990502756,291.423013294 L311.705615781,281.739849972 L314.420728806,271.925928092 L317.136382152,262.006154046 L319.851495177,252.005635084 L322.566608202,241.94947845599998 L325.281721227,231.86315898214 L327.996834252,221.7721072938 L330.711947277,211.7018303484 L333.427060302,201.67765031399998 L336.14217332699997,191.725136414 L338.857826673,181.869034354 L341.57293969799997,172.134451384 L344.288052723,162.54609303799998 L347.003165748,153.127861418 L349.718278773,143.903859484 L352.43339179799995,134.89698504799998 L355.148504823,126.13033677999998 L357.863617848,117.62580820199999 L360.57927119399994,109.40509197799999 L363.294384219,101.488675624 L366.009497244,93.89664493999999 L368.724610269,86.64848315199998 L371.439723294,79.76186576399999 L374.154836319,73.254869996 L376.869949344,67.14336362999998 L379.58506236899996,61.44301358999999 L382.300715715,56.16828165199999 L385.01582874,51.33222358599997 L387.73094176499995,46.94749344599998 L390.44605478999995,43.024736706 L393.161167815,39.573996265999995 L395.87628084,36.603909019999975 L398.591393865,34.122107572000004 L401.30650689,32.13481851999998 L404.022160236,30.647264172000007 L406.737273261,29.662658255999986 L409.452386286,29.184013641999996 L412.16749931100003,29.21233461999998 L414.88261233599997,29.74742033199999 L417.59772536099996,30.788266487999977 L420.31283838599995,32.331860217999974 L423.027951411,34.37458607799999 L425.74360475699996,36.91102090199999 L428.458717782,39.93513894999998 L431.173830807,43.43890590199999 L433.888943832,47.413684863999976 L436.604056857,51.84943293599997 L439.319169882,56.735102927999975 L442.034282907,62.05804078599999 L444.74939593199997,67.804789024 L447.465049278,73.96128758199998 L450.180162303,80.51146781999998 L452.89527532799997,87.439261098 L455.61038835299996,94.72679105399999 L458.325501378,102.35577960999998 L461.040614403,110.307145256 L463.755727428,118.560601334 L466.470840453,127.09545947 L469.186493799,135.89002699999998 L471.901606824,144.922209544 L474.61671984899994,154.16910929 L477.331832874,163.60742670999997 L480.046945899,173.21346056 L482.762058924,182.962706164 L485.47717194899997,192.83085970399998 L488.192284974,202.792613072 L490.90793831999997,212.823160305 L493.62305134499996,222.8970125228 L496.33816437,232.98880136 L499.053277395,243.0730178506 L501.76839042,253.12421328599999 L504.483503445,263.116898786 L507.19861647000005,273.026228216 L509.91372949500004,282.82669261 L512.629382841,292.493787292 L515.3444958660001,302.00300758599997 L518.059608891,311.330652248 L520.774721916,320.452819176 L523.489834941,329.346610558 L526.204947966,337.989530298 L528.920060991,346.359885732 L531.635174016,354.436385912 L534.350827362,362.19874417999995 L537.065940387,369.627276452 L539.781053412,376.703302934 L542.496166437,383.408947264 L545.211279462,389.727136512 L547.926392487,395.642203754 L550.641505512,401.13908463999996 L553.356618537,406.20371911 L556.072271883,410.82365396800003 L558.787384908,414.986837734 L561.5024979330001,418.68322750799996 L564.217610958,421.90298124799995 L566.9327239830001,424.63846635 L569.647837008,426.882451926 L572.3629500330001,428.62931395199996 L575.078063058,429.874633552 L577.7937164040001,430.615397856 L580.5088294290001,430.84959828399997 L583.223942454,430.57683311999995 L585.939055479,429.79750407999995 L588.654168504,428.513820602 L591.369281529,426.728996414 L594.084394554,424.447249534 L596.7995075790001,421.67480656 L599.515160925,418.418295806 L602.2302739500001,414.686153308 L604.945386975,410.487819392 L607.6605000000001,405.833537816 L607.6605000000001,229.992 L604.945386975,229.992 L602.2302739500001,229.992 L599.515160925,229.992 L596.7995075790001,229.992 L594.084394554,229.992 L591.369281529,229.992 L588.654168504,229.992 L585.939055479,229.992 L583.223942454,229.992 L580.5088294290001,229.992 L577.7937164040001,229.992 L575.078063058,229.992 L572.3629500330001,229.992 L569.647837008,229.992 L566.9327239830001,229.992 L564.217610958,229.992 L561.5024979330001,229.992 L558.787384908,229.992 L556.072271883,229.992 L553.356618537,229.992 L550.641505512,229.992 L547.926392487,229.992 L545.211279462,229.992 L542.496166437,229.992 L539.781053412,229.992 L537.065940387,229.992 L534.350827362,229.992 L531.635174016,229.992 L528.920060991,229.992 L526.204947966,229.992 L523.489834941,229.992 L520.774721916,229.992 L518.059608891,229.992 L515.3444958660001,229.992 L512.629382841,229.992 L509.91372949500004,229.992 L507.19861647000005,229.992 L504.483503445,229.992 L501.76839042,229.992 L499.053277395,229.992 L496.33816437,229.992 L493.62305134499996,229.992 L490.90793831999997,229.992 L488.192284974,229.992 L485.47717194899997,229.992 L482.762058924,229.992 L480.046945899,229.992 L477.331832874,229.992 L474.61671984899994,229.992 L471.901606824,229.992 L469.186493799,229.992 L466.470840453,229.992 L463.755727428,229.992 L461.040614403,229.992 L458.325501378,229.992 L455.61038835299996,229.992 L452.89527532799997,229.992 L450.180162303,229.992 L447.465049278,229.992 L444.74939593199997,229.992 L442.034282907,229.992 L439.319169882,229.992 L436.604056857,229.992 L433.888943832,229.992 L431.173830807,229.992 L428.458717782,229.992 L425.74360475699996,229.992 L423.027951411,229.992 L420.31283838599995,229.992 L417.59772536099996,229.992 L414.88261233599997,229.992 L412.16749931100003,229.992 L409.452386286,229.992 L406.737273261,229.992 L404.022160236,229.992 L401.30650689,229.992 L398.591393865,229.992 L395.87628084,229.992 L393.161167815,229.992 L390.44605478999995,229.992 L387.73094176499995,229.992 L385.01582874,229.992 L382.300715715,229.992 L379.58506236899996,229.992 L376.869949344,229.992 L374.154836319,229.992 L371.439723294,229.992 L368.724610269,229.992 L366.009497244,229.992 L363.294384219,229.992 L360.57927119399994,229.992 L357.863617848,229.992 L355.148504823,229.992 L352.43339179799995,229.992 L349.718278773,229.992 L347.003165748,229.992 L344.288052723,229.992 L341.57293969799997,229.992 L338.857826673,229.992 L336.14217332699997,229.992 L333.427060302,229.992 L330.711947277,229.992 L327.996834252,229.992 L325.281721227,229.992 L322.566608202,229.992 L319.851495177,229.992 L317.136382152,229.992 L314.420728806,229.992 L311.705615781,229.992 L308.990502756,229.992 L306.275389731,229.992 L303.56027670599997,229.992 L300.845163681,229.992 L298.130050656,229.992 L295.41493763100004,229.992 L292.699284285,229.992 L289.98417126,229.992 L287.26905823500005,229.992 L284.55394521,229.992 L281.838832185,229.992 L279.12371916,229.992 L276.408606135,229.992 L273.69349311,229.992 L270.977839764,229.992 L268.262726739,229.992 L265.547613714,229.992 L262.832500689,229.992 L260.117387664,229.992 L257.402274639,229.992 L254.687161614,229.992 L251.972048589,229.992 L249.256395243,229.992 L246.541282218,229.992 L243.826169193,229.992 L241.111056168,229.992 L238.395943143,229.992 L235.68083011800002,229.992 L232.96571709299997,229.992 L230.25060406800003,229.992 L227.53495072200002,229.992 L224.81983769699997,229.992 L222.10472467200003,229.992 L219.38961164699998,229.992 L216.674498622,229.992 L213.959385597,229.992 L211.244272572,229.992 L208.529159547,229.992 L205.813506201,229.992 L203.098393176,229.992 L200.383280151,229.992 L197.66816712600001,229.992 L194.95305410100002,229.992 L192.237941076,229.992 L189.52282805099998,229.992 L186.80771502599998,229.992 L184.09206168,229.992 L181.37694865499998,229.992 L178.66183562999998,229.992 L175.946722605,229.992 L173.23160958,229.992 L170.516496555,229.992 L167.80138353,229.992 L165.08627050500002,229.992 L162.370617159,229.992 L159.655504134,229.992 L156.94039110900002,229.992 L154.225278084,229.992 L151.510165059,229.992 L148.795052034,229.992 L146.079939009,229.992 L143.364825984,229.992 L140.649172638,229.992 L137.934059613,229.992 L135.218946588,229.992 L132.503833563,229.992 L129.788720538,229.992 L127.073607513,229.992 L124.35849448799999,229.992 L121.643381463,229.992 L118.9279442454,229.992 L116.21277718830001,229.992 L113.4975560991,229.992 L110.782389042,229.992 L108.0672219849,229.992 L105.3520549278,229.992 L102.63683383860001,229.992 L99.9216667815,229.992 L97.2064997244,229.992 L94.4913326673,229.992 L91.7761115781,229.992 L89.060944521,229.992 L86.34577746389999,229.992 L83.6306104068,229.992 L80.9153893176,229.992 L78.2002222605,229.992 L75.48505520340001,229.992 L72.7698881463,229.992 L70.05468326673,229.992 L67.3395,229.992 "/>
                            </g>
                        </g>
                        <g fill="none" stroke="black" stroke-width="1" fill-rule="evenodd" stroke-linecap="square" stroke-linejoin="bevel" id="FillBetweenItem_5">
                            <g fill="#1f77b4" fill-opacity="0.866667" stroke="none" font-family="Sans Serif" font-size="12" font-weight="400" font-style="normal">
                                <path vector-effect="non-scaling-stroke" fill-rule="evenodd" d="M67.3395,47.352423173999995 L70.05468326673,51.78154293199998 L72.7698881463,56.660383752 L75.48505520340001,61.97709501200001 L78.2002222605,67.71781751 L80.9153893176,73.868491186 L83.6306104068,80.41304739999998 L86.34577746389999,87.33541751199999 L89.060944521,94.61772515999999 L91.7761115781,102.242093982 L94.4913326673,110.18883989399998 L97.2064997244,118.438077954 L99.9216667815,126.96891892999999 L102.63683383860001,135.75987101599998 L105.3520549278,144.78863897399998 L108.0672219849,154.03252585 L110.782389042,163.468232116 L113.4975560991,173.072056528 L116.21277718830001,182.81929355199998 L118.9279442454,192.685840228 L121.643381463,202.64658930599998 L124.35849448799999,212.6762125922 L127.073607513,222.7496229224 L129.788720538,232.84133141639998 L132.503833563,242.9258291082 L135.218946588,252.977586946 L137.934059613,262.971477594 L140.649172638,272.882012172 L143.364825984,282.684284288 L146.079939009,292.353588408 L148.795052034,301.865419856 L151.510165059,311.195675672 L154.225278084,320.321056328 L156.94039110900002,329.218463154 L159.655504134,337.865199196 L162.370617159,346.23957179 L165.08627050500002,354.320490846 L167.80138353,362.08766970600004 L170.516496555,369.521223428 L173.23160958,376.602472218 L175.946722605,383.313539714 L178.66183562999998,389.637754702 L181.37694865499998,395.558646826 L184.09206168,401.06175430999997 L186.80771502599998,406.132816236 L189.52282805099998,410.759379408 L192.237941076,414.929392346 L194.95305410100002,418.632611292 L197.66816712600001,421.859395062 L200.383280151,424.60191019399997 L203.098393176,426.853126658 L205.813506201,428.60742043 L208.529159547,429.85997091800004 L211.244272572,430.608166968 L213.959385597,430.849799142 L216.674498622,430.584465724 L219.38961164699998,429.81256843 L222.10472467200003,428.53611584 L224.81983769699997,426.75852254 L227.53495072200002,424.484207406 L230.25060406800003,421.718794462 L232.96571709299997,418.469313738 L235.68083011800002,414.744000412 L238.395943143,410.55229481000003 L241.111056168,405.904842406 L243.826169193,400.813092106 L246.541282218,395.29009968 L249.256395243,389.34992518800004 L251.972048589,383.007231264 L254.687161614,376.278287406 L257.402274639,369.18016654400003 L260.117387664,361.730544182 L262.832500689,353.94830097199997 L265.547613714,345.853120998 L268.262726739,337.465290918 L270.977839764,328.80630253799995 L273.69349311,319.897848522 L276.408606135,310.762424966 L279.12371916,301.422929682 L281.838832185,291.903264772 L284.55394521,282.22713148 L287.26905823500005,272.41923534 L289.98417126,262.504281886 L292.699284285,252.50717751 L295.41493763100004,242.4532102342 L298.130050656,232.3677885956 L300.845163681,222.2763813886 L303.56027670599997,212.2044574076 L306.275389731,202.177385018 L308.990502756,192.2206531 L311.705615781,182.359127874 L314.420728806,172.61791659 L317.136382152,163.02172478199998 L319.851495177,153.594454552 L322.566608202,144.36000800199997 L325.281721227,135.34188551799997 L327.996834252,126.56258319599999 L330.711947277,118.04439627399998 L333.427060302,109.80901741599999 L336.14217332699997,101.87693413799997 L338.857826673,94.26823224 L341.57293969799997,87.00239494799999 L344.288052723,80.09749948199999 L347.003165748,73.57081962999999 L349.718278773,67.439227464 L352.43339179799995,61.71798819200001 L355.148504823,56.421764447999976 L357.863617848,51.563411143999986 L360.57927119399994,47.155783192 L363.294384219,43.209726923999995 L366.009497244,39.735084382 L368.724610269,36.74089417599998 L371.439723294,34.23458805199999 L374.154836319,32.22239260799998 L376.869949344,30.709731009999985 L379.58506236899996,29.700017843999973 L382.300715715,29.195864263999994 L385.01582874,29.198877133999986 L387.73094176499995,29.70865473799998 L390.44605478999995,30.724192785999975 L393.161167815,32.24288012399998 L395.87628084,34.26069959199998 L398.591393865,36.772629739999985 L401.30650689,39.77244396999998 L404.022160236,43.252509677999996 L406.737273261,47.20398911199999 L409.452386286,51.617040229999986 L412.16749931100003,56.48021412599999 L414.88261233599997,61.78166017800001 L417.59772536099996,67.50772004199999 L420.31283838599995,73.643931942 L423.027951411,80.17482981199998 L425.74360475699996,87.084144154 L428.458717782,94.35419946399998 L431.173830807,101.96651680599999 L433.888943832,109.902215528 L436.604056857,118.14120982999998 L439.319169882,126.66240962199998 L442.034282907,135.44452395599998 L444.74939593199997,144.46525759399998 L447.465049278,153.70211444 L450.180162303,163.13139324999997 L452.89527532799997,172.72959363799998 L455.61038835299996,182.47221092799998 L458.325501378,192.334941302 L461.040614403,202.29267750999998 L463.755727428,212.3203926452 L466.470840453,222.3926781706 L469.186493799,232.48418580659998 L471.901606824,242.5693664156 L474.61671984899994,252.622871718 L477.331832874,262.619172662 L480.046945899,272.533121826 L482.762058924,282.33961196 L485.47717194899997,292.01393752999996 L488.192284974,301.531794718 L490.90793831999997,310.868879706 L493.62305134499996,320.001892966 L496.33816437,328.907735828 L499.053277395,337.56371133799996 L501.76839042,345.948126832 L504.483503445,354.03989221999996 L507.19861647000005,361.818319128 L509.91372949500004,369.26392433 L512.629382841,376.358028032 L515.3444958660001,383.08255301400004 L518.059608891,389.42062720399997 L520.774721916,395.356181962 L523.489834941,400.87435379600004 L526.204947966,405.960881788 L528.920060991,410.60331274199996 L531.635174016,414.789796036 L534.350827362,418.509485338 L537.065940387,421.753542896 L539.781053412,424.513331816 L542.496166437,426.78202292599997 L545.211279462,428.553791344 L547.926392487,429.824419052 L550.641505512,430.590290606 L553.356618537,430.85 L556.072271883,430.602542944 L558.787384908,429.848522012 L561.5024979330001,428.58994578399995 L564.217610958,426.830027988 L566.9327239830001,424.5731875 L569.647837008,421.82504834400004 L572.3629500330001,418.59264055 L575.078063058,414.883998438 L577.7937164040001,410.708562334 L580.5088294290001,406.07697771200003 L583.223942454,401.000693478 L585.939055479,395.492765402 L588.654168504,389.567052686 L591.369281529,383.23841882199997 L594.084394554,376.52293245 L596.7995075790001,369.437465642 L599.515160925,361.99989475999996 L602.2302739500001,354.22910045599997 L604.945386975,346.14456595599995 L607.6605000000001,337.766979634 L607.6605000000001,229.992 L604.945386975,229.992 L602.2302739500001,229.992 L599.515160925,229.992 L596.7995075790001,229.992 L594.084394554,229.992 L591.369281529,229.992 L588.654168504,229.992 L585.939055479,229.992 L583.223942454,229.992 L580.5088294290001,229.992 L577.7937164040001,229.992 L575.078063058,229.992 L572.3629500330001,229.992 L569.647837008,229.992 L566.9327239830001,229.992 L564.217610958,229.992 L561.5024979330001,229.992 L558.787384908,229.992 L556.072271883,229.992 L553.356618537,229.992 L550.641505512,229.992 L547.926392487,229.992 L545.211279462,229.992 L542.496166437,229.992 L539.781053412,229.992 L537.065940387,229.992 L534.350827362,229.992 L531.635174016,229.992 L528.920060991,229.992 L526.204947966,229.992 L523.489834941,229.992 L520.774721916,229.992 L518.059608891,229.992 L515.3444958660001,229.992 L512.629382841,229.992 L509.91372949500004,229.992 L507.19861647000005,229.992 L504.483503445,229.992 L501.76839042,229.992 L499.053277395,229.992 L496.33816437,229.992 L493.62305134499996,229.992 L490.90793831999997,229.992 L488.192284974,229.992 L485.47717194899997,229.992 L482.762058924,229.992 L480.046945899,229.992 L477.331832874,229.992 L474.61671984899994,229.992 L471.901606824,229.992 L469.186493799,229.992 L466.470840453,229.992 L463.755727428,229.992 L461.040614403,229.992 L458.325501378,229.992 L455.61038835299996,229.992 L452.89527532799997,229.992 L450.180162303,229.992 L447.465049278,229.992 L444.74939593199997,229.992 L442.034282907,229.992 L439.319169882,229.992 L436.604056857,229.992 L433.888943832,229.992 L431.173830807,229.992 L428.458717782,229.992 L425.74360475699996,229.992 L423.027951411,229.992 L420.31283838599995,229.992 L417.59772536099996,229.992 L414.88261233599997,229.992 L412.16749931100003,229.992 L409.452386286,229.992 L406.737273261,229.992 L404.022160236,229.992 L401.30650689,229.992 L398.591393865,229.992 L395.87628084,229.992 L393.161167815,229.992 L390.44605478999995,229.992 L387.73094176499995,229.992 L385.01582874,229.992 L382.300715715,229.992 L379.58506236899996,229.992 L376.869949344,229.992 L374.154836319,229.992 L371.439723294,229.992 L368.724610269,229.992 L366.009497244,229.992 L363.294384219,229.992 L360.57927119399994,229.992 L357.863617848,229.992 L355.148504823,229.992 L352.43339179799995,229.992 L349.718278773,229.992 L347.003165748,229.992 L344.288052723,229.992 L341.57293969799997,229.992 L338.857826673,229.992 L336.14217332699997,229.992 L333.427060302,229.992 L330.711947277,229.992 L327.996834252,229.992 L325.281721227,229.992 L322.566608202,229.992 L319.851495177,229.992 L317.136382152,229.992 L314.420728806,229.992 L311.705615781,229.992 L308.990502756,229.992 L306.275389731,229.992 L303.56027670599997,229.992 L300.845163681,229.992 L298.130050656,229.992 L295.41493763100004,229.992 L292.699284285,229.992 L289.98417126,229.992 L287.26905823500005,229.992 L284.55394521,229.992 L281.838832185,229.992 L279.12371916,229.992 L276.408606135,229.992 L273.69349311,229.992 L270.977839764,229.992 L268.262726739,229.992 L265.547613714,229.992 L262.832500689,229.992 L260.117387664,229.992 L257.402274639,229.992 L254.687161614,229.992 L251.972048589,229.992 L249.256395243,229.992 L246.541282218,229.992 L243.826169193,229.992 L241.111056168,229.992 L238.395943143,229.992 L235.68083011800002,229.992 L232.96571709299997,229.992 L230.25060406800003,229.992 L227.53495072200002,229.992 L224.81983769699997,229.992 L222.10472467200003,229.992 L219.38961164699998,229.992 L216.674498622,229.992 L213.959385597,229.992 L211.244272572,229.992 L208.529159547,229.992 L205.813506201,229.992 L203.098393176,229.992 L200.383280151,229.992 L197.66816712600001,229.992 L194.95305410100002,229.992 L192.237941076,229.992 L189.52282805099998,229.992 L186.80771502599998,229.992 L184.09206168,229.992 L181.37694865499998,229.992 L178.66183562999998,229.992 L175.946722605,229.992 L173.23160958,229.992 L170.516496555,229.992 L167.80138353,229.992 L165.08627050500002,229.992 L162.370617159,229.992 L159.655504134,229.992 L156.94039110900002,229.992 L154.225278084,229.992 L151.510165059,229.992 L148.795052034,229.992 L146.079939009,229.992 L143.364825984,229.992 L140.649172638,229.992 L137.934059613,229.992 L135.218946588,229.992 L132.503833563,229.992 L129.788720538,229.992 L127.073607513,229.992 L124.35849448799999,229.992 L121.643381463,229.992 L118.9279442454,229.992 L116.21277718830001,229.992 L113.4975560991,229.992 L110.782389042,229.992 L108.0672219849,229.992 L105.3520549278,229.992 L102.63683383860001,229.992 L99.9216667815,229.992 L97.2064997244,229.992 L94.4913326673,229.992 L91.7761115781,229.992 L89.060944521,229.992 L86.34577746389999,229.992 L83.6306104068,229.992 L80.9153893176,229.992 L78.2002222605,229.992 L75.48505520340001,229.992 L72.7698881463,229.992 L70.05468326673,229.992 L67.3395,229.992 "/>
                            </g>
                        </g>
                    </g>
                    <g fill="none" stroke="black" stroke-width="1" fill-rule="evenodd" stroke-linecap="square" stroke-linejoin="bevel" id="QGraphicsRectItem_1">
                        <g fill="none" stroke="none" transform="matrix(1,0,0,1,45,10)" font-family="Sans Serif" font-size="12" font-weight="400" font-style="normal">
                            <rect vector-effect="non-scaling-stroke" x="0" y="0" width="585" height="440"/>
                        </g>
                    </g>
                </g>
            </g>
            <g fill="none" stroke="black" stroke-width="1" fill-rule="evenodd" stroke-linecap="square" stroke-linejoin="bevel" id="LabelItem_1">
                <g fill="none" stroke="black" stroke-width="1" fill-rule="evenodd" stroke-linecap="square" stroke-linejoin="bevel" id="QGraphicsTextItem_1">
                    


                    


                    


                    <g fill="none" stroke="#969696" stroke-opacity="1" stroke-width="1" stroke-linecap="square" stroke-linejoin="bevel" transform="matrix(1,0,0,1,238.508,-3)" font-family="Sans Serif" font-size="12" font-weight="400" font-style="normal">
                        <text fill="#969696" fill-opacity="1" stroke="none" xml:space="preserve" x="4" y="18.5" font-family="&quot;Sans Serif&quot;" font-size="14.6667" font-weight="400" font-style="normal">Alpha / Transparency Demo</text>
                    </g>
                    


                    

                </g>
            </g>
            <g fill="none" stroke="black" stroke-width="1" fill-rule="evenodd" stroke-linecap="square" stroke-linejoin="bevel" id="AxisItem_1">
                <g fill="none" stroke="#333333" stroke-opacity="1" stroke-width="1" stroke-linecap="square" stroke-linejoin="bevel" font-family="Sans Serif" font-size="12" font-weight="400" font-style="normal">
                    <polyline fill="none" vector-effect="non-scaling-stroke" points="44.0,451.0 631.0,451.0"/>
                </g>
                <g fill="none" stroke="#333333" stroke-opacity="0.14902" stroke-width="1" stroke-linecap="square" stroke-linejoin="bevel" font-family="Sans Serif" font-size="12" font-weight="400" font-style="normal">
                    <polyline fill="none" vector-effect="non-scaling-stroke" points="67.3395,10.0 67.3395,450.0"/>
                    <polyline fill="none" vector-effect="non-scaling-stroke" points="175.404,10.0 175.404,450.0"/>
                    <polyline fill="none" vector-effect="non-scaling-stroke" points="283.46799999999996,10.0 283.46799999999996,450.0"/>
                    <polyline fill="none" vector-effect="non-scaling-stroke" points="391.532,10.0 391.532,450.0"/>
                    <polyline fill="none" vector-effect="non-scaling-stroke" points="499.596,10.0 499.596,450.0"/>
                    <polyline fill="none" vector-effect="non-scaling-stroke" points="607.66,10.0 607.66,450.0"/>
                </g>
                <g fill="none" stroke="#333333" stroke-opacity="0.0745098" stroke-width="1" stroke-linecap="square" stroke-linejoin="bevel" font-family="Sans Serif" font-size="12" font-weight="400" font-style="normal">
                    <polyline fill="none" vector-effect="non-scaling-stroke" points="121.3716,10.0 121.3716,450.0"/>
                    <polyline fill="none" vector-effect="non-scaling-stroke" points="229.436,10.0 229.436,450.0"/>
                    <polyline fill="none" vector-effect="non-scaling-stroke" points="337.5,10.0 337.5,450.0"/>
                    <polyline fill="none" vector-effect="non-scaling-stroke" points="445.564,10.0 445.564,450.0"/>
                    <polyline fill="none" vector-effect="non-scaling-stroke" points="553.6279999999999,10.0 553.6279999999999,450.0"/>
                </g>
                <g fill="none" stroke="#333333" stroke-opacity="0.0313726" stroke-width="1" stroke-linecap="square" stroke-linejoin="bevel" font-family="Sans Serif" font-size="12" font-weight="400" font-style="normal">
                    <polyline fill="none" vector-effect="non-scaling-stroke" points="45.726684,10.0 45.726684,450.0"/>
                    <polyline fill="none" vector-effect="non-scaling-stroke" points="56.5331,10.0 56.5331,450.0"/>
                    <polyline fill="none" vector-effect="non-scaling-stroke" points="78.1459,10.0 78.1459,450.0"/>
                    <polyline fill="none" vector-effect="non-scaling-stroke" points="88.9524,10.0 88.9524,450.0"/>
                    <polyline fill="none" vector-effect="non-scaling-stroke" points="99.75880000000001,10.0 99.75880000000001,450.0"/>
                    <polyline fill="none" vector-effect="non-scaling-stroke" points="110.5652,10.0 110.5652,450.0"/>
                    <polyline fill="none" vector-effect="non-scaling-stroke" points="132.178,10.0 132.178,450.0"/>
                    <polyline fill="none" vector-effect="non-scaling-stroke" points="142.9845,10.0 142.9845,450.0"/>
                    <polyline fill="none" vector-effect="non-scaling-stroke" points="153.791,10.0 153.791,450.0"/>
                    <polyline fill="none" vector-effect="non-scaling-stroke" points="164.59699999999998,10.0 164.59699999999998,450.0"/>
                    <polyline fill="none" vector-effect="non-scaling-stroke" points="186.21,10.0 186.21,450.0"/>
                    <polyline fill="none" vector-effect="non-scaling-stroke" points="197.017,10.0 197.017,450.0"/>
                    <polyline fill="none" vector-effect="non-scaling-stroke" points="207.823,10.0 207.823,450.0"/>
                    <polyline fill="none" vector-effect="non-scaling-stroke" points="218.629,10.0 218.629,450.0"/>
                    <polyline fill="none" vector-effect="non-scaling-stroke" points="240.242,10.0 240.242,450.0"/>
                    <polyline fill="none" vector-effect="non-scaling-stroke" points="251.049,10.0 251.049,450.0"/>
                    <polyline fill="none" vector-effect="non-scaling-stroke" points="261.855,10.0 261.855,450.0"/>
                    <polyline fill="none" vector-effect="non-scaling-stroke" points="272.661,10.0 272.661,450.0"/>
                    <polyline fill="none" vector-effect="non-scaling-stroke" points="294.274,10.0 294.274,450.0"/>
                    <polyline fill="none" vector-effect="non-scaling-stroke" points="305.081,10.0 305.081,450.0"/>
                    <polyline fill="none" vector-effect="non-scaling-stroke" points="315.887,10.0 315.887,450.0"/>
                    <polyline fill="none" vector-effect="non-scaling-stroke" points="326.694,10.0 326.694,450.0"/>
                    <polyline fill="none" vector-effect="non-scaling-stroke" points="348.306,10.0 348.306,450.0"/>
                    <polyline fill="none" vector-effect="non-scaling-stroke" points="359.113,10.0 359.113,450.0"/>
                    <polyline fill="none" vector-effect="non-scaling-stroke" points="369.919,10.0 369.919,450.0"/>
                    <polyline fill="none" vector-effect="non-scaling-stroke" points="380.726,10.0 380.726,450.0"/>
                    <polyline fill="none" vector-effect="non-scaling-stroke" points="402.339,10.0 402.339,450.0"/>
                    <polyline fill="none" vector-effect="non-scaling-stroke" points="413.145,10.0 413.145,450.0"/>
                    <polyline fill="none" vector-effect="non-scaling-stroke" points="423.951,10.0 423.951,450.0"/>
                    <polyline fill="none" vector-effect="non-scaling-stroke" points="434.758,10.0 434.758,450.0"/>
                    <polyline fill="none" vector-effect="non-scaling-stroke" points="456.371,10.0 456.371,450.0"/>
                    <polyline fill="none" vector-effect="non-scaling-stroke" points="467.177,10.0 467.177,450.0"/>
                    <polyline fill="none" vector-effect="non-scaling-stroke" points="477.983,10.0 477.983,450.0"/>
                    <polyline fill="none" vector-effect="non-scaling-stroke" points="488.79,10.0 488.79,450.0"/>
                    <polyline fill="none" vector-effect="non-scaling-stroke" points="510.403,10.0 510.403,450.0"/>
                    <polyline fill="none" vector-effect="non-scaling-stroke" points="521.2090000000001,10.0 521.2090000000001,450.0"/>
                    <polyline fill="none" vector-effect="non-scaling-stroke" points="532.0160000000001,10.0 532.0160000000001,450.0"/>
                    <polyline fill="none" vector-effect="non-scaling-stroke" points="542.822,10.0 542.822,450.0"/>
                    <polyline fill="none" vector-effect="non-scaling-stroke" points="564.435,10.0 564.435,450.0"/>
                    <polyline fill="none" vector-effect="non-scaling-stroke" points="575.241,10.0 575.241,450.0"/>
                    <polyline fill="none" vector-effect="non-scaling-stroke" points="586.048,10.0 586.048,450.0"/>
                    <polyline fill="none" vector-effect="non-scaling-stroke" points="596.854,10.0 596.854,450.0"/>
                    <polyline fill="none" vector-effect="non-scaling-stroke" points="618.467,10.0 618.467,450.0"/>
                    <polyline fill="none" vector-effect="non-scaling-stroke" points="629.273,10.0 629.273,450.0"/>
                </g>
                <g fill="none" stroke="#333333" stroke-opacity="1" stroke-width="1" stroke-linecap="square" stroke-linejoin="bevel" transform="matrix(1,0,0,1,45,450)" font-family="Sans Serif" font-size="12" font-weight="400" font-style="normal">
                    <text fill="#333333" fill-opacity="1" stroke="none" xml:space="preserve" x="18.4531" y="13.1875" font-family="&quot;Sans Serif&quot;" font-size="12" font-weight="400" font-style="normal">0</text>
                    <text fill="#333333" fill-opacity="1" stroke="none" xml:space="preserve" x="126.672" y="13.1875" font-family="&quot;Sans Serif&quot;" font-size="12" font-weight="400" font-style="normal">2</text>
                    <text fill="#333333" fill-opacity="1" stroke="none" xml:space="preserve" x="234.484" y="13.1875" font-family="&quot;Sans Serif&quot;" font-size="12" font-weight="400" font-style="normal">4</text>
                    <text fill="#333333" fill-opacity="1" stroke="none" xml:space="preserve" x="342.594" y="13.1875" font-family="&quot;Sans Serif&quot;" font-size="12" font-weight="400" font-style="normal">6</text>
                    <text fill="#333333" fill-opacity="1" stroke="none" xml:space="preserve" x="450.656" y="13.1875" font-family="&quot;Sans Serif&quot;" font-size="12" font-weight="400" font-style="normal">8</text>
                    <text fill="#333333" fill-opacity="1" stroke="none" xml:space="preserve" x="555.875" y="13.1875" font-family="&quot;Sans Serif&quot;" font-size="12" font-weight="400" font-style="normal">10</text>
                    <text fill="#333333" fill-opacity="1" stroke="none" xml:space="preserve" x="73.4688" y="13.1875" font-family="&quot;Sans Serif&quot;" font-size="12" font-weight="400" font-style="normal">1</text>
                    <text fill="#333333" fill-opacity="1" stroke="none" xml:space="preserve" x="180.563" y="13.1875" font-family="&quot;Sans Serif&quot;" font-size="12" font-weight="400" font-style="normal">3</text>
                    <text fill="#333333" fill-opacity="1" stroke="none" xml:space="preserve" x="288.688" y="13.1875" font-family="&quot;Sans Serif&quot;" font-size="12" font-weight="400" font-style="normal">5</text>
                    <text fill="#333333" fill-opacity="1" stroke="none" xml:space="preserve" x="397.031" y="13.1875" font-family="&quot;Sans Serif&quot;" font-size="12" font-weight="400" font-style="normal">7</text>
                    <text fill="#333333" fill-opacity="1" stroke="none" xml:space="preserve" x="504.688" y="13.1875" font-family="&quot;Sans Serif&quot;" font-size="12" font-weight="400" font-style="normal">9</text>
                </g>
                <g fill="none" stroke="black" stroke-width="1" fill-rule="evenodd" stroke-linecap="square" stroke-linejoin="bevel" id="QGraphicsTextItem_2">
                    


                    


                    


                    <g fill="none" stroke="#333333" stroke-opacity="1" stroke-width="1" stroke-linecap="square" stroke-linejoin="bevel" transform="matrix(1,0,0,1,333,452)" font-family="Sans Serif" font-size="12" font-weight="400" font-style="normal">
                        <text fill="#333333" fill-opacity="1" stroke="none" xml:space="preserve" x="4" y="15.5938" font-family="&quot;Sans Serif&quot;" font-size="12" font-weight="400" font-style="normal">x </text>
                    </g>
                    


                    

                </g>
            </g>
            <g fill="none" stroke="black" stroke-width="1" fill-rule="evenodd" stroke-linecap="square" stroke-linejoin="bevel" id="AxisItem_2">
                <g fill="none" stroke="#333333" stroke-opacity="1" stroke-width="1" stroke-linecap="square" stroke-linejoin="bevel" font-family="Sans Serif" font-size="12" font-weight="400" font-style="normal">
                    <polyline fill="none" vector-effect="non-scaling-stroke" points="44.0,9.0 44.0,451.0"/>
                </g>
                <g fill="none" stroke="#333333" stroke-opacity="0.14902" stroke-width="1" stroke-linecap="square" stroke-linejoin="bevel" font-family="Sans Serif" font-size="12" font-weight="400" font-style="normal">
                    <polyline fill="none" vector-effect="non-scaling-stroke" points="630.5,430.85 45.0,430.85"/>
                    <polyline fill="none" vector-effect="non-scaling-stroke" points="630.5,330.421 45.0,330.421"/>
                    <polyline fill="none" vector-effect="non-scaling-stroke" points="630.5,229.992 45.0,229.992"/>
                    <polyline fill="none" vector-effect="non-scaling-stroke" points="630.5,129.562 45.0,129.562"/>
                    <polyline fill="none" vector-effect="non-scaling-stroke" points="630.5,29.1333 45.0,29.1333"/>
                </g>
                <g fill="none" stroke="#333333" stroke-opacity="0.0745098" stroke-width="1" stroke-linecap="square" stroke-linejoin="bevel" font-family="Sans Serif" font-size="12" font-weight="400" font-style="normal">
                    <polyline fill="none" vector-effect="non-scaling-stroke" points="630.5,410.764 45.0,410.764"/>
                    <polyline fill="none" vector-effect="non-scaling-stroke" points="630.5,390.678 45.0,390.678"/>
                    <polyline fill="none" vector-effect="non-scaling-stroke" points="630.5,370.592 45.0,370.592"/>
                    <polyline fill="none" vector-effect="non-scaling-stroke" points="630.5,350.506 45.0,350.506"/>
                    <polyline fill="none" vector-effect="non-scaling-stroke" points="630.5,310.335 45.0,310.335"/>
                    <polyline fill="none" vector-effect="non-scaling-stroke" points="630.5,290.249 45.0,290.249"/>
                    <polyline fill="none" vector-effect="non-scaling-stroke" points="630.5,270.163 45.0,270.163"/>
                    <polyline fill="none" vector-effect="non-scaling-stroke" points="630.5,250.077 45.0,250.077"/>
                    <polyline fill="none" vector-effect="non-scaling-stroke" points="630.5,209.906 45.0,209.906"/>
                    <polyline fill="none" vector-effect="non-scaling-stroke" points="630.5,189.82 45.0,189.82"/>
                    <polyline fill="none" vector-effect="non-scaling-stroke" points="630.5,169.734 45.0,169.734"/>
                    <polyline fill="none" vector-effect="non-scaling-stroke" points="630.5,149.648 45.0,149.648"/>
                    <polyline fill="none" vector-effect="non-scaling-stroke" points="630.5,109.4766 45.0,109.4766"/>
                    <polyline fill="none" vector-effect="non-scaling-stroke" points="630.5,89.3908 45.0,89.3908"/>
                    <polyline fill="none" vector-effect="non-scaling-stroke" points="630.5,69.3049 45.0,69.3049"/>
                    <polyline fill="none" vector-effect="non-scaling-stroke" points="630.5,49.2191 45.0,49.2191"/>
                </g>
                <g fill="none" stroke="#333333" stroke-opacity="0.0470588" stroke-width="1" stroke-linecap="square" stroke-linejoin="bevel" font-family="Sans Serif" font-size="12" font-weight="400" font-style="normal">
                    <polyline fill="none" vector-effect="non-scaling-stroke" points="630.5,440.893 45.0,440.893"/>
                    <polyline fill="none" vector-effect="non-scaling-stroke" points="630.5,420.807 45.0,420.807"/>
                    <polyline fill="none" vector-effect="non-scaling-stroke" points="630.5,400.721 45.0,400.721"/>
                    <polyline fill="none" vector-effect="non-scaling-stroke" points="630.5,380.635 45.0,380.635"/>
                    <polyline fill="none" vector-effect="non-scaling-stroke" points="630.5,360.549 45.0,360.549"/>
                    <polyline fill="none" vector-effect="non-scaling-stroke" points="630.5,340.464 45.0,340.464"/>
                    <polyline fill="none" vector-effect="non-scaling-stroke" points="630.5,320.378 45.0,320.378"/>
                    <polyline fill="none" vector-effect="non-scaling-stroke" points="630.5,300.292 45.0,300.292"/>
                    <polyline fill="none" vector-effect="non-scaling-stroke" points="630.5,280.206 45.0,280.206"/>
                    <polyline fill="none" vector-effect="non-scaling-stroke" points="630.5,260.12 45.0,260.12"/>
                    <polyline fill="none" vector-effect="non-scaling-stroke" points="630.5,240.034 45.0,240.034"/>
                    <polyline fill="none" vector-effect="non-scaling-stroke" points="630.5,219.949 45.0,219.949"/>
                    <polyline fill="none" vector-effect="non-scaling-stroke" points="630.5,199.863 45.0,199.863"/>
                    <polyline fill="none" vector-effect="non-scaling-stroke" points="630.5,179.777 45.0,179.777"/>
                    <polyline fill="none" vector-effect="non-scaling-stroke" points="630.5,159.691 45.0,159.691"/>
                    <polyline fill="none" vector-effect="non-scaling-stroke" points="630.5,139.605 45.0,139.605"/>
                    <polyline fill="none" vector-effect="non-scaling-stroke" points="630.5,119.519 45.0,119.519"/>
                    <polyline fill="none" vector-effect="non-scaling-stroke" points="630.5,99.4337 45.0,99.4337"/>
                    <polyline fill="none" vector-effect="non-scaling-stroke" points="630.5,79.3478 45.0,79.3478"/>
                    <polyline fill="none" vector-effect="non-scaling-stroke" points="630.5,59.262 45.0,59.262"/>
                    <polyline fill="none" vector-effect="non-scaling-stroke" points="630.5,39.1762 45.0,39.1762"/>
                    <polyline fill="none" vector-effect="non-scaling-stroke" points="630.5,19.09037 45.0,19.09037"/>
                </g>
                <g fill="none" stroke="#333333" stroke-opacity="1" stroke-width="1" stroke-linecap="square" stroke-linejoin="bevel" transform="matrix(1,0,0,1,10,10)" font-family="Sans Serif" font-size="12" font-weight="400" font-style="normal">
                    <text fill="#333333" fill-opacity="1" stroke="none" xml:space="preserve" x="7.4375" y="424.969" font-family="&quot;Sans Serif&quot;" font-size="12" font-weight="400" font-style="normal">-1.0</text>
                    <text fill="#333333" fill-opacity="1" stroke="none" xml:space="preserve" x="5.0625" y="324.531" font-family="&quot;Sans Serif&quot;" font-size="12" font-weight="400" font-style="normal">-0.5</text>
                    <text fill="#333333" fill-opacity="1" stroke="none" xml:space="preserve" x="22.2344" y="224.109" font-family="&quot;Sans Serif&quot;" font-size="12" font-weight="400" font-style="normal">0</text>
                    <text fill="#333333" fill-opacity="1" stroke="none" xml:space="preserve" x="10.9375" y="123.672" font-family="&quot;Sans Serif&quot;" font-size="12" font-weight="400" font-style="normal">0.5</text>
                    <text fill="#333333" fill-opacity="1" stroke="none" xml:space="preserve" x="12.9688" y="23.25" font-family="&quot;Sans Serif&quot;" font-size="12" font-weight="400" font-style="normal">1.0</text>
                </g>
                <g fill="none" stroke="black" stroke-width="1" fill-rule="evenodd" stroke-linecap="square" stroke-linejoin="bevel" id="QGraphicsTextItem_3">
                    


                    


                    


                    <g fill="none" stroke="#333333" stroke-opacity="1" stroke-width="1" stroke-linecap="square" stroke-linejoin="bevel" transform="matrix(0,-1,1,0,5,234)" font-family="Sans Serif" font-size="12" font-weight="400" font-style="normal">
                        <text fill="#333333" fill-opacity="1" stroke="none" xml:space="preserve" x="4" y="15.5938" font-family="&quot;Sans Serif&quot;" font-size="12" font-weight="400" font-style="normal">y </text>
                    </g>
                    


                    

                </g>
            </g>
        </g>
        <g fill="none" stroke="black" stroke-width="1" fill-rule="evenodd" stroke-linecap="square" stroke-linejoin="bevel" id="QGraphicsRectItem_2">
            <g fill="none" stroke="none" transform="matrix(1,0,0,1,0,0)" font-family="Sans Serif" font-size="12" font-weight="400" font-style="normal">
                <rect vector-effect="non-scaling-stroke" x="0" y="0" width="0" height="0"/>
            </g>
        </g>
    </g>
</g>

</svg>
